<?xml version="1.0" encoding="UTF-8"?>
<svg id="_图层_1" data-name="图层_1" xmlns="http://www.w3.org/2000/svg" version="1.1" viewBox="0 0 1247 1191">
  <!-- Generator: Adobe Illustrator 29.3.1, SVG Export Plug-In . SVG Version: 2.1.0 Build 151)  -->
  <defs>
    <style>
      .st0 {
        fill: #2d2e2a;
      }

      .st1 {
        fill: #b53a2a;
      }

      .st2 {
        display: none;
        fill: #fefdfb;
      }

      .st3 {
        fill: #2f2f2b;
      }

      .st4 {
        fill: #2d2d2a;
      }
    </style>
  </defs>
  <path class="st2" d="M0,0h1247v1191H0V0Z"/>
  <path class="st4" d="M129.7,94.2l20,22,9,9,21,24,14,14,41,41,8,7,11,10,7,6,22,19,23,20,44,36,7,5,68,50,79,53,2,2,19,12,3,2,1,1,17,11,3,1,16,11,27,18,46,32,2,2c15.7,11.1,30.4,23.4,44,37l25,25,6,7c26,27.3,44,59.3,54,96l1,2c10.7,40,3.4,82.8-20,117-15.3,23.3-25.3,48.3-30,75l-1,3c-2.9,20.8-1.2,41.9,5,62,2.7,10.5,6.7,20.6,12,30,4,8,8.7,16,14,24l2,3c8,11.3,17,21.7,27,31-4,.7-8.3.3-13-1h-2l-48-12c-54.7-16-107.3-36.3-158-61l-2-1c-39.3-19.3-76-43.3-110-72l-8-6-26-22v-2l14,5c47.4,19.9,97.7,31.7,149,35h3c20,2,40.3,2.7,61,2l-2-1-125-50-4-1-38-17-2-1c-67.9-29.3-131-68.7-187-117l-1-2-6-5-3-2c-31.1-28.4-59.3-59.9-84-94l-2-2-35-54-2-3-2-2-1-2,1-2,2,2,22,18,2,2,40,29c49,34.6,100.9,65,155,91,56.2,28.5,114.3,52.9,174,73l3,1,3,1,85,35-49-37-7-4c-32.5-22-65.9-42.7-100-62l-33-20-40-26-2-1c-35-22.2-68.1-47.3-99-75l-22-19-11-10-6-5-12-12-3-3-17-17-2-2-12-12-6-8c-20.8-21.2-39.6-44.3-56-69l-2-3c-24-34-45-69.7-63-107l-1-2-2-5-2-3-1-3,1-2,2,2,65,64,4,3,14,13,2,1,5,5,1,1c45.9,38.4,94,74.2,144,107l49,31,3,2,6,3,34,20,45,25,14,8,25,14c24.7,12.7,49.3,26.3,74,41l8,5c20,11.3,39.7,23.7,59,37-.7-2-2.3-4.3-5-7l-21-22-2-2-14-13-2-1c-26.8-23.1-54.5-45.1-83-66l-2-2-52-39-12-9-3-2-46-36-21-18-21-19-27-26-3-3-12-13-9-9-19-20-20-24-21-25-24-32c-34.7-46.7-62.7-97-84-151l-1-2-2-7-1-2-2-7Z"/>
  <path class="st0" d="M592.7,115.2l3,7,1,2,1,3,1,2,3,12c4.7,15.3,10.3,30.3,17,45l1,3c18,43.5,39.7,85.3,65,125l2,3c28.3,46,60,89.8,95,131l52,60q11,15,24,24h3c46.7.3,91.4,18.6,125,51,11.2,11,20.3,23.8,27,38,4.7,10,8,20,10,30l1,2,1,10c0,4.7,1.7,9,5,13l16,10,20,12,9,6,8,6-12,4h-2l-40,7c-17.3,2.7-34.3,7.3-51,14l-4,1,3-12c8.8-28.4,4.4-59.2-12-84-18-27-43-40-73-48h-27c-12,0-24.3,1.3-37,4l-2,1c-11.3,3.3-22,7.3-32,12l-3,1-3,1-6,1-4-7-3-4-2-3-26-35c-16.4-22.3-36-42.2-58-59l-27-21-12-9-2-2-30-20-3-2-23-15-24-16-2-1c-12-8-21.3-18-28-30l-2-3c-18-33.3-32.7-68.3-44-105l-1-3c-8.7-26.7-13.3-54.3-14-83,2.7,2,4.7,4.7,6,8l1,3,2,3c23.3,44.7,51,86,83,124l1,2,24,27,14,15,41,42,42,41,1,1,4,4-6-9c-6.7-8-12.3-16.7-17-26l-10-17-1-2c-16-26.7-29.3-54.3-40-83l-1-2c-6.7-16-12-32.7-16-50l-1-3c-12-48-24-109-11-157h0Z"/>
  <circle class="st1" cx="887.2" cy="885.7" r="135"/>
  <circle class="st3" cx="915.4" cy="666.8" r="23.5"/>
</svg>
